<?xml version="1.0" encoding="UTF-8" standalone="no"?>
<!-- Created with Inkscape (http://www.inkscape.org/) -->

<svg
   width="1280"
   height="640"
   viewBox="0 0 338.66666 169.33333"
   version="1.1"
   id="svg1"
   sodipodi:docname="ellip-logo.svg"
   inkscape:export-filename="ellip-logo.png"
   inkscape:export-xdpi="96"
   inkscape:export-ydpi="96"
   inkscape:version="1.4.2 (ebf0e940d0, 2025-05-08)"
   xmlns:inkscape="http://www.inkscape.org/namespaces/inkscape"
   xmlns:sodipodi="http://sodipodi.sourceforge.net/DTD/sodipodi-0.dtd"
   xmlns="http://www.w3.org/2000/svg"
   xmlns:svg="http://www.w3.org/2000/svg"
   xmlns:rdf="http://www.w3.org/1999/02/22-rdf-syntax-ns#"
   xmlns:cc="http://creativecommons.org/ns#">
  <sodipodi:namedview
     id="namedview1"
     pagecolor="#ffffff"
     bordercolor="#000000"
     borderopacity="0.25"
     inkscape:showpageshadow="2"
     inkscape:pageopacity="0.0"
     inkscape:pagecheckerboard="0"
     inkscape:deskcolor="#d1d1d1"
     inkscape:document-units="mm"
     inkscape:zoom="0.37417736"
     inkscape:cx="597.31032"
     inkscape:cy="360.79147"
     inkscape:window-width="1514"
     inkscape:window-height="815"
     inkscape:window-x="0"
     inkscape:window-y="0"
     inkscape:window-maximized="0"
     inkscape:current-layer="layer1">
    <inkscape:page
       x="0"
       y="0"
       width="338.66666"
       height="169.33333"
       id="page2"
       margin="0"
       bleed="0" />
  </sodipodi:namedview>
  <defs
     id="defs1" />
  <g
     id="layer1"
     transform="matrix(2.8340418,0,0,2.8340418,-127.97598,-328.46502)"
     style="stroke-width:0.352853">
    <ellipse
       style="fill:#2d00c8;fill-opacity:1;stroke:#2d00c8;stroke-width:0;stroke-linecap:round;stroke-linejoin:round;stroke-dasharray:none"
       id="path2"
       cx="105.52251"
       cy="146.20107"
       rx="16.702209"
       ry="16.702211"
       inkscape:label="path2" />
    <ellipse
       style="fill:#2d00c8;fill-opacity:1;stroke:#2d00c8;stroke-width:0;stroke-linecap:round;stroke-linejoin:round;stroke-dasharray:none"
       id="path2-0"
       cx="132.14236"
       cy="145.82762"
       rx="7.1168194"
       ry="7.1168203"
       inkscape:label="path2" />
    <ellipse
       style="fill:#2d00c8;fill-opacity:1;stroke:#2d00c8;stroke-width:0;stroke-linecap:round;stroke-linejoin:round;stroke-dasharray:none"
       id="path2-0-8"
       cx="146.14848"
       cy="145.82762"
       rx="4.08848"
       ry="4.0884805"
       inkscape:label="path2" />
    <ellipse
       style="fill:#2d00c8;fill-opacity:1;stroke:#2d00c8;stroke-width:0;stroke-linecap:round;stroke-linejoin:round;stroke-dasharray:none"
       id="path2-0-2"
       cx="-79.089378"
       cy="145.82762"
       rx="7.1168194"
       ry="7.1168203"
       inkscape:label="path2"
       transform="scale(-1,1)" />
    <ellipse
       style="fill:#2d00c8;fill-opacity:1;stroke:#2d00c8;stroke-width:0;stroke-linecap:round;stroke-linejoin:round;stroke-dasharray:none"
       id="path2-0-8-3"
       cx="-65.08326"
       cy="145.82762"
       rx="4.08848"
       ry="4.0884805"
       inkscape:label="path2"
       transform="scale(-1,1)" />
    <path
       id="path6-2"
       style="fill:#ffffff;fill-opacity:1;stroke:none;stroke-width:0.259538;stroke-linecap:round;stroke-dasharray:none;stroke-opacity:1"
       d="m 119.85487,145.26253 c -0.43056,0.21532 -0.3171,0.82634 -0.39234,1.22592 -0.49222,2.98337 -2.21153,5.72352 -4.65871,7.49332 -4.16908,3.07564 -9.87067,3.70796 -14.70598,2.0086 -3.090365,-1.08583 -5.881191,-3.22851 -7.374014,-6.19744 -0.582006,-1.14683 -0.956335,-2.39933 -1.120983,-3.67968 -0.02996,-0.23282 -0.01175,-0.59022 -0.02777,-0.82441 -0.354206,-0.20716 -0.766736,0.32246 -0.622242,0.6727 0.06899,4.23772 2.47193,8.26475 5.982633,10.58198 4.675426,3.18211 11.133666,3.46581 16.072176,0.71152 3.41356,-1.86583 6.10255,-5.16935 6.87883,-9.01925 0.18655,-0.91707 0.32754,-1.87825 0.19012,-2.80698 -0.0449,-0.0806 -0.11743,-0.18173 -0.22171,-0.16628 z"
       sodipodi:nodetypes="cccccscccccccc" />
    <path
       id="text1-7"
       style="font-size:25.4px;font-family:'Hi.';-inkscape-font-specification:'Hi.';text-align:center;text-anchor:middle;fill:#ffffff;fill-opacity:1;stroke-width:0;stroke-linecap:round;stroke-dasharray:none"
       d="m 105.58841,136.3289 c -3.41401,0.13405 -6.714435,2.428 -7.789893,5.71326 -0.930086,2.66164 -0.278624,5.88215 1.8438,7.79731 2.831293,2.58734 7.417733,2.89785 10.616743,0.81085 1.06451,-0.62637 1.95387,-1.48937 2.77383,-2.40301 0.39228,-0.3376 0.86534,-0.84418 0.60843,-1.40231 -0.26019,-0.80254 -1.41883,-1.17977 -2.02884,-0.53139 -1.32133,0.959 -2.54194,2.06824 -3.94502,2.90912 -2.24271,1.05814 -5.10515,0.23385 -6.6756,-1.66034 -1.130233,-1.40177 -1.264163,-3.42193 -0.52988,-5.00822 0.86521,-2.01951 2.98288,-3.53057 5.19164,-3.45284 1.4448,0.0341 2.82217,0.56025 4.12768,1.1618 -0.44171,0.63343 -1.12108,1.0463 -1.68576,1.56041 -0.75562,0.62444 -1.59722,1.17166 -2.25547,1.89727 -0.49525,0.86667 0.5886,2.07258 1.4938,1.57558 0.73989,-0.37024 1.31038,-0.99476 1.98184,-1.46865 1.29284,-1.03719 2.58174,-2.09646 3.74881,-3.27226 0.29811,-0.61015 -0.28624,-1.15718 -0.69488,-1.53272 -1.33001,-1.28758 -2.98722,-2.30289 -4.84246,-2.57252 -0.63887,-0.11126 -1.29074,-0.14606 -1.93877,-0.12134 z" />
  </g>
  <metadata
     id="metadata1">
    <rdf:RDF>
      <cc:License
         rdf:about="http://creativecommons.org/licenses/by-nd/4.0/">
        <cc:permits
           rdf:resource="http://creativecommons.org/ns#Reproduction" />
        <cc:permits
           rdf:resource="http://creativecommons.org/ns#Distribution" />
        <cc:requires
           rdf:resource="http://creativecommons.org/ns#Notice" />
        <cc:requires
           rdf:resource="http://creativecommons.org/ns#Attribution" />
      </cc:License>
      <cc:Work
         rdf:about="">
        <cc:license
           rdf:resource="http://creativecommons.org/licenses/by-nd/4.0/" />
      </cc:Work>
    </rdf:RDF>
  </metadata>
</svg>
