<svg class="main-svg" xmlns="http://www.w3.org/2000/svg" xmlns:xlink="http://www.w3.org/1999/xlink" width="1000" height="600" style="" viewBox="0 0 1000 600"><rect x="0" y="0" width="1000" height="600" style="fill: rgb(255, 255, 255); fill-opacity: 1;"/><defs id="defs-d20f00"><g class="clips"><clipPath id="clipd20f00xyplot" class="plotclip"><rect width="840" height="420"/></clipPath><clipPath class="axesclip" id="clipd20f00x"><rect x="80" y="0" width="840" height="600"/></clipPath><clipPath class="axesclip" id="clipd20f00y"><rect x="0" y="100" width="1000" height="420"/></clipPath><clipPath class="axesclip" id="clipd20f00xy"><rect x="80" y="100" width="840" height="420"/></clipPath></g><g class="gradients"/></defs><g class="bglayer"/><g class="layer-below"><g class="imagelayer"/><g class="shapelayer"/></g><g class="cartesianlayer"><g class="subplot xy"><g class="layer-subplot"><g class="shapelayer"/><g class="imagelayer"/></g><g class="gridlayer"><g class="x"><path class="xgrid crisp" transform="translate(290,0)" d="M0,100v420" style="stroke: rgb(238, 238, 238); stroke-opacity: 1; stroke-width: 1px;"/><path class="xgrid crisp" transform="translate(710,0)" d="M0,100v420" style="stroke: rgb(238, 238, 238); stroke-opacity: 1; stroke-width: 1px;"/></g><g class="y"><path class="ygrid crisp" transform="translate(0,415)" d="M80,0h840" style="stroke: rgb(238, 238, 238); stroke-opacity: 1; stroke-width: 1px;"/><path class="ygrid crisp" transform="translate(0,205)" d="M80,0h840" style="stroke: rgb(238, 238, 238); stroke-opacity: 1; stroke-width: 1px;"/></g></g><g class="zerolinelayer"><path class="xzl zl crisp" transform="translate(500,0)" d="M0,100v420" style="stroke: rgb(68, 68, 68); stroke-opacity: 1; stroke-width: 1px;"/><path class="yzl zl crisp" transform="translate(0,310)" d="M80,0h840" style="stroke: rgb(68, 68, 68); stroke-opacity: 1; stroke-width: 1px;"/></g><path class="xlines-below"/><path class="ylines-below"/><g class="overlines-below"/><g class="xaxislayer-below"/><g class="yaxislayer-below"/><g class="overaxes-below"/><g class="plot" transform="translate(80,100)" clip-path="url('#clipd20f00xyplot')"><g class="scatterlayer mlayer"><g class="trace scatter trace096ce9" style="stroke-miterlimit: 2; opacity: 1;"><g class="fills"/><g class="errorbars"/><g class="lines"><path class="js-line" d="M0,210L21.84,196.27L22.68,195.81L34.44,190.32L35.28,190.01L44.52,187.34L45.36,187.17L54.6,186.28L55.44,186.29L63.84,187.19L64.68,187.37L73.08,189.92L73.92,190.25L83.16,194.81L84,195.29L95.76,203.09L96.6,203.7L126,224.71L126.84,225.19L136.08,229.75L136.92,230.08L146.16,232.81L147,232.97L155.4,233.72L156.24,233.71L165.48,232.66L166.32,232.48L175.56,229.68L176.4,229.35L187.32,224.19L188.16,223.73L201.6,215.56L202.44,215.02L233.52,195.36L234.36,194.92L245.28,190.01L246.12,189.7L255.36,187.17L256.2,187.02L264.6,186.28L265.44,186.29L273.84,187.19L274.68,187.37L283.08,189.92L283.92,190.25L293.16,194.81L294,195.29L305.76,203.09L306.6,203.7L336,224.71L336.84,225.19L346.08,229.75L346.92,230.08L356.16,232.81L357,232.97L365.4,233.72L366.24,233.71L375.48,232.66L376.32,232.48L385.56,229.68L386.4,229.35L397.32,224.19L398.16,223.73L411.6,215.56L412.44,215.02L443.52,195.36L444.36,194.92L455.28,190.01L456.12,189.7L465.36,187.17L466.2,187.02L474.6,186.28L475.44,186.29L483.84,187.19L484.68,187.37L493.08,189.92L493.92,190.25L503.16,194.81L504,195.29L515.76,203.09L516.6,203.7L546,224.71L546.84,225.19L556.08,229.75L556.92,230.08L566.16,232.81L567,232.97L575.4,233.72L576.24,233.71L585.48,232.66L586.32,232.48L595.56,229.68L596.4,229.35L607.32,224.19L608.16,223.73L621.6,215.56L622.44,215.02L653.52,195.36L654.36,194.92L665.28,190.01L666.12,189.7L675.36,187.17L676.2,187.02L684.6,186.28L685.44,186.29L693.84,187.19L694.68,187.37L703.08,189.92L703.92,190.25L713.16,194.81L714,195.29L725.76,203.09L726.6,203.7L756,224.71L756.84,225.19L766.08,229.75L766.92,230.08L776.16,232.81L777,232.97L785.4,233.72L786.24,233.71L795.48,232.66L796.32,232.48L805.56,229.68L806.4,229.35L817.32,224.19L818.16,223.73L831.6,215.56L832.44,215.02L840,210" style="vector-effect: non-scaling-stroke; fill: none; stroke: rgb(255, 0, 0); stroke-opacity: 1; stroke-width: 2px; opacity: 1;"/></g><g class="points"/><g class="text"/></g><g class="trace scatter trace4ff758" style="stroke-miterlimit: 2; opacity: 1;"><g class="fills"/><g class="errorbars"/><g class="lines"><path class="js-line" d="M0,210L20.16,185.63L21,184.71L31.92,173.96L32.76,173.25L41.16,167.14L42,166.64L49.56,163.25L50.4,163L56.28,162.01L57.12,161.99L63,162.64L63.84,162.86L69.72,165.29L70.56,165.77L76.44,170.04L77.28,170.78L84,177.86L84.84,178.88L92.4,189.31L93.24,190.59L105.84,211.44L106.68,212.87L120.12,234.39L120.96,235.58L129.36,245.93L130.2,246.8L136.92,252.6L137.76,253.18L143.64,256.29L144.48,256.6L150.36,257.91L151.2,257.98L157.08,257.59L157.92,257.42L163.8,255.49L164.64,255.11L171.36,251.25L172.2,250.66L180.6,243.78L181.44,243L191.52,232.5L192.36,231.54L207.48,213.18L208.32,212.12L230.16,185.63L231,184.71L241.92,173.96L242.76,173.25L251.16,167.14L252,166.64L259.56,163.25L260.4,163L266.28,162.01L267.12,161.99L273,162.64L273.84,162.86L279.72,165.29L280.56,165.77L286.44,170.04L287.28,170.78L294,177.86L294.84,178.88L302.4,189.31L303.24,190.59L315.84,211.44L316.68,212.87L330.12,234.39L330.96,235.58L339.36,245.93L340.2,246.8L346.92,252.6L347.76,253.18L353.64,256.29L354.48,256.6L360.36,257.91L361.2,257.98L367.08,257.59L367.92,257.42L373.8,255.49L374.64,255.11L381.36,251.25L382.2,250.66L390.6,243.78L391.44,243L401.52,232.5L402.36,231.54L417.48,213.18L418.32,212.12L440.16,185.63L441,184.71L451.92,173.96L452.76,173.25L461.16,167.14L462,166.64L469.56,163.25L470.4,163L476.28,162.01L477.12,161.99L483,162.64L483.84,162.86L489.72,165.29L490.56,165.77L496.44,170.04L497.28,170.78L504,177.86L504.84,178.88L512.4,189.31L513.24,190.59L525.84,211.44L526.68,212.87L540.12,234.39L540.96,235.58L549.36,245.93L550.2,246.8L556.92,252.6L557.76,253.18L563.64,256.29L564.48,256.6L570.36,257.91L571.2,257.98L577.08,257.59L577.92,257.42L583.8,255.49L584.64,255.11L591.36,251.25L592.2,250.66L600.6,243.78L601.44,243L611.52,232.5L612.36,231.54L627.48,213.18L628.32,212.12L650.16,185.63L651,184.71L661.92,173.96L662.76,173.25L671.16,167.14L672,166.64L679.56,163.25L680.4,163L686.28,162.01L687.12,161.99L693,162.64L693.84,162.86L699.72,165.29L700.56,165.77L706.44,170.04L707.28,170.78L714,177.86L714.84,178.88L722.4,189.31L723.24,190.59L735.84,211.44L736.68,212.87L750.12,234.39L750.96,235.58L759.36,245.93L760.2,246.8L766.92,252.6L767.76,253.18L773.64,256.29L774.48,256.6L780.36,257.91L781.2,257.98L787.08,257.59L787.92,257.42L793.8,255.49L794.64,255.11L801.36,251.25L802.2,250.66L810.6,243.78L811.44,243L821.52,232.5L822.36,231.54L837.48,213.18L838.32,212.12L840,210" style="vector-effect: non-scaling-stroke; fill: none; stroke: rgb(0, 0, 255); stroke-opacity: 1; stroke-width: 2px; opacity: 1;"/></g><g class="points"/><g class="text"/></g><g class="trace scatter traceca9aee" style="stroke-miterlimit: 2; opacity: 1;"><g class="fills"/><g class="errorbars"/><g class="lines"><path class="js-line" d="M0,210L23.52,158.35L24.36,156.65L36.12,134.73L36.96,133.32L45.36,120.61L46.2,119.49L53.76,110.89L54.6,110.11L60.48,105.74L61.32,105.28L66.36,103.52L67.2,103.4L71.4,103.62L72.24,103.84L76.44,105.92L77.28,106.55L81.48,110.9L82.32,112.03L86.52,119.29L87.36,121.1L91.56,132.36L92.4,135.13L96.6,152.4L97.44,156.67L101.64,183.17L102.48,189.53L111.72,258.74L112.56,263.33L116.76,281.89L117.6,284.87L121.8,296.96L122.64,298.9L126.84,306.73L127.68,307.97L131.88,312.75L132.72,313.45L136.92,315.88L137.76,316.16L141.96,316.67L142.8,316.6L147.84,315.13L148.68,314.72L153.72,311.34L154.56,310.63L160.44,304.66L161.28,303.67L168.84,293.37L169.68,292.08L178.92,276.34L179.76,274.78L191.52,251.16L192.36,249.37L210.84,208.09L211.68,206.17L233.52,158.35L234.36,156.65L246.12,134.73L246.96,133.32L255.36,120.61L256.2,119.49L263.76,110.89L264.6,110.11L270.48,105.74L271.32,105.28L276.36,103.52L277.2,103.4L281.4,103.62L282.24,103.84L286.44,105.92L287.28,106.55L291.48,110.9L292.32,112.03L296.52,119.29L297.36,121.1L301.56,132.36L302.4,135.13L306.6,152.4L307.44,156.67L311.64,183.17L312.48,189.53L321.72,258.74L322.56,263.33L326.76,281.89L327.6,284.87L331.8,296.96L332.64,298.9L336.84,306.73L337.68,307.97L341.88,312.75L342.72,313.45L346.92,315.88L347.76,316.16L351.96,316.67L352.8,316.6L357.84,315.13L358.68,314.72L363.72,311.34L364.56,310.63L370.44,304.66L371.28,303.67L378.84,293.37L379.68,292.08L388.92,276.34L389.76,274.78L401.52,251.16L402.36,249.37L420.84,208.09L421.68,206.17L443.52,158.35L444.36,156.65L456.12,134.73L456.96,133.32L465.36,120.61L466.2,119.49L473.76,110.89L474.6,110.11L480.48,105.74L481.32,105.28L486.36,103.52L487.2,103.4L491.4,103.62L492.24,103.84L496.44,105.92L497.28,106.55L501.48,110.9L502.32,112.03L506.52,119.29L507.36,121.1L511.56,132.36L512.4,135.13L516.6,152.4L517.44,156.67L521.64,183.17L522.48,189.53L531.72,258.74L532.56,263.33L536.76,281.89L537.6,284.87L541.8,296.96L542.64,298.9L546.84,306.73L547.68,307.97L551.88,312.75L552.72,313.45L556.92,315.88L557.76,316.16L561.96,316.67L562.8,316.6L567.84,315.13L568.68,314.72L573.72,311.34L574.56,310.63L580.44,304.66L581.28,303.67L588.84,293.37L589.68,292.08L598.92,276.34L599.76,274.78L611.52,251.16L612.36,249.37L630.84,208.09L631.68,206.17L653.52,158.35L654.36,156.65L666.12,134.73L666.96,133.32L675.36,120.61L676.2,119.49L683.76,110.89L684.6,110.11L690.48,105.74L691.32,105.28L696.36,103.52L697.2,103.4L701.4,103.62L702.24,103.84L706.44,105.92L707.28,106.55L711.48,110.9L712.32,112.03L716.52,119.29L717.36,121.1L721.56,132.36L722.4,135.13L726.6,152.4L727.44,156.67L731.64,183.17L732.48,189.53L741.72,258.74L742.56,263.33L746.76,281.89L747.6,284.87L751.8,296.96L752.64,298.9L756.84,306.73L757.68,307.97L761.88,312.75L762.72,313.45L766.92,315.88L767.76,316.16L771.96,316.67L772.8,316.6L777.84,315.13L778.68,314.72L783.72,311.34L784.56,310.63L790.44,304.66L791.28,303.67L798.84,293.37L799.68,292.08L808.92,276.34L809.76,274.78L821.52,251.16L822.36,249.37L840,210" style="vector-effect: non-scaling-stroke; fill: none; stroke: rgb(0, 128, 0); stroke-opacity: 1; stroke-width: 2px; opacity: 1;"/></g><g class="points"/><g class="text"/></g><g class="trace scatter tracede6362" style="stroke-miterlimit: 2; opacity: 1;"><g class="fills"/><g class="errorbars"/><g class="lines"><path class="js-line" d="M0,210L25.2,142.47L26.04,140.37L38.64,110.78L39.48,108.96L50.4,87.45L51.24,85.98L59.64,72.89L60.48,71.76L67.2,63.99L68.04,63.19L73.92,58.77L74.76,58.32L79.8,56.69L80.64,56.62L84.84,57.19L85.68,57.51L89.04,59.65L89.88,60.42L93.24,64.72L94.08,66.16L97.44,74.05L98.28,76.75L100.8,88.02L101.64,93.52L103.32,110.87L104.16,128.34L106.68,309.13L107.52,319.31L110.04,336.42L110.88,340.11L114.24,350.38L115.08,352.22L118.44,357.69L119.28,358.69L123.48,362.08L124.32,362.49L128.52,363.4L129.36,363.38L133.56,362.43L134.4,362.08L139.44,358.97L140.28,358.29L146.16,352.42L147,351.43L153.72,342.25L154.56,340.95L162.96,326.38L163.8,324.77L173.88,303.63L174.72,301.73L187.32,271.13L188.16,268.97L205.8,221.59L206.64,219.28L235.2,142.47L236.04,140.37L248.64,110.78L249.48,108.96L260.4,87.45L261.24,85.98L269.64,72.89L270.48,71.76L277.2,63.99L278.04,63.19L283.92,58.77L284.76,58.32L289.8,56.69L290.64,56.62L294.84,57.19L295.68,57.51L299.04,59.65L299.88,60.42L303.24,64.72L304.08,66.16L307.44,74.05L308.28,76.75L310.8,88.02L311.64,93.52L313.32,110.87L314.16,128.34L316.68,309.13L317.52,319.31L320.04,336.42L320.88,340.11L324.24,350.38L325.08,352.22L328.44,357.69L329.28,358.69L333.48,362.08L334.32,362.49L338.52,363.4L339.36,363.38L343.56,362.43L344.4,362.08L349.44,358.97L350.28,358.29L356.16,352.42L357,351.43L363.72,342.25L364.56,340.95L372.96,326.38L373.8,324.77L383.88,303.63L384.72,301.73L397.32,271.13L398.16,268.97L415.8,221.59L416.64,219.28L445.2,142.47L446.04,140.37L458.64,110.78L459.48,108.96L470.4,87.45L471.24,85.98L479.64,72.89L480.48,71.76L487.2,63.99L488.04,63.19L493.92,58.77L494.76,58.32L499.8,56.69L500.64,56.62L504.84,57.19L505.68,57.51L509.04,59.65L509.88,60.42L513.24,64.72L514.08,66.16L517.44,74.05L518.28,76.75L520.8,88.02L521.64,93.52L523.32,110.87L524.16,128.34L526.68,309.13L527.52,319.31L530.04,336.42L530.88,340.11L534.24,350.38L535.08,352.22L538.44,357.69L539.28,358.69L543.48,362.08L544.32,362.49L548.52,363.4L549.36,363.38L553.56,362.43L554.4,362.08L559.44,358.97L560.28,358.29L566.16,352.42L567,351.43L573.72,342.25L574.56,340.95L582.96,326.38L583.8,324.77L593.88,303.63L594.72,301.73L607.32,271.13L608.16,268.97L625.8,221.59L626.64,219.28L655.2,142.47L656.04,140.37L668.64,110.78L669.48,108.96L680.4,87.45L681.24,85.98L689.64,72.89L690.48,71.76L697.2,63.99L698.04,63.19L703.92,58.77L704.76,58.32L709.8,56.69L710.64,56.62L714.84,57.19L715.68,57.51L719.04,59.65L719.88,60.42L723.24,64.72L724.08,66.16L727.44,74.05L728.28,76.75L730.8,88.02L731.64,93.52L733.32,110.87L734.16,128.34L736.68,309.13L737.52,319.31L740.04,336.42L740.88,340.11L744.24,350.38L745.08,352.22L748.44,357.69L749.28,358.69L753.48,362.08L754.32,362.49L758.52,363.4L759.36,363.38L763.56,362.43L764.4,362.08L769.44,358.97L770.28,358.29L776.16,352.42L777,351.43L783.72,342.25L784.56,340.95L792.96,326.38L793.8,324.77L803.88,303.63L804.72,301.73L817.32,271.13L818.16,268.97L835.8,221.59L836.64,219.28L840,210" style="vector-effect: non-scaling-stroke; fill: none; stroke: rgb(128, 0, 128); stroke-opacity: 1; stroke-width: 2px; opacity: 1;"/></g><g class="points"/><g class="text"/></g></g></g><g class="overplot"/><path class="xlines-above crisp" d="M79,520.5H920" style="fill: none; stroke-width: 1px; stroke: rgb(68, 68, 68); stroke-opacity: 1;"/><path class="ylines-above crisp" d="M79.5,100V520" style="fill: none; stroke-width: 1px; stroke: rgb(68, 68, 68); stroke-opacity: 1;"/><g class="overlines-above"/><g class="xaxislayer-above"><g class="xtick"><text text-anchor="middle" x="0" y="535.4" transform="translate(80,0)" style="font-family: 'Open Sans', verdana, arial, sans-serif; font-size: 12px; fill: rgb(68, 68, 68); fill-opacity: 1; white-space: pre;">-2π</text></g><g class="xtick"><text text-anchor="middle" x="0" y="535.4" transform="translate(290,0)" style="font-family: 'Open Sans', verdana, arial, sans-serif; font-size: 12px; fill: rgb(68, 68, 68); fill-opacity: 1; white-space: pre;">-1π</text></g><g class="xtick"><text text-anchor="middle" x="0" y="535.4" transform="translate(500,0)" style="font-family: 'Open Sans', verdana, arial, sans-serif; font-size: 12px; fill: rgb(68, 68, 68); fill-opacity: 1; white-space: pre;">0</text></g><g class="xtick"><text text-anchor="middle" x="0" y="535.4" transform="translate(710,0)" style="font-family: 'Open Sans', verdana, arial, sans-serif; font-size: 12px; fill: rgb(68, 68, 68); fill-opacity: 1; white-space: pre;">π</text></g><g class="xtick"><text text-anchor="middle" x="0" y="535.4" transform="translate(920,0)" style="font-family: 'Open Sans', verdana, arial, sans-serif; font-size: 12px; fill: rgb(68, 68, 68); fill-opacity: 1; white-space: pre;">2π</text></g></g><g class="yaxislayer-above"><g class="ytick"><text text-anchor="end" x="76.6" y="4.199999999999999" transform="translate(0,520)" style="font-family: 'Open Sans', verdana, arial, sans-serif; font-size: 12px; fill: rgb(68, 68, 68); fill-opacity: 1; white-space: pre;">−1</text></g><g class="ytick"><text text-anchor="end" x="76.6" y="4.199999999999999" transform="translate(0,415)" style="font-family: 'Open Sans', verdana, arial, sans-serif; font-size: 12px; fill: rgb(68, 68, 68); fill-opacity: 1; white-space: pre;">−0.5</text></g><g class="ytick"><text text-anchor="end" x="76.6" y="4.199999999999999" transform="translate(0,310)" style="font-family: 'Open Sans', verdana, arial, sans-serif; font-size: 12px; fill: rgb(68, 68, 68); fill-opacity: 1; white-space: pre;">0</text></g><g class="ytick"><text text-anchor="end" x="76.6" y="4.199999999999999" transform="translate(0,205)" style="font-family: 'Open Sans', verdana, arial, sans-serif; font-size: 12px; fill: rgb(68, 68, 68); fill-opacity: 1; white-space: pre;">0.5</text></g><g class="ytick"><text text-anchor="end" x="76.6" y="4.199999999999999" transform="translate(0,100)" style="font-family: 'Open Sans', verdana, arial, sans-serif; font-size: 12px; fill: rgb(68, 68, 68); fill-opacity: 1; white-space: pre;">1</text></g></g><g class="overaxes-above"/></g></g><g class="polarlayer"/><g class="ternarylayer"/><g class="geolayer"/><g class="funnelarealayer"/><g class="pielayer"/><g class="treemaplayer"/><g class="sunburstlayer"/><g class="glimages"/><defs id="topdefs-d20f00"><g class="clips"/><clipPath id="legendd20f00"><rect width="114" height="86" x="0" y="0"/></clipPath></defs><g class="layer-above"><g class="imagelayer"/><g class="shapelayer"/></g><g class="infolayer"><g class="legend" pointer-events="all" transform="translate(806,100)"><rect class="bg" shape-rendering="crispEdges" style="stroke: rgb(68, 68, 68); stroke-opacity: 1; fill: rgb(255, 255, 255); fill-opacity: 1; stroke-width: 0px;" width="114" height="86" x="0" y="0"/><g class="scrollbox" transform="" clip-path="url('#legendd20f00')"><g class="groups"><g class="traces" transform="translate(0,14.5)" style="opacity: 1;"><text class="legendtext" text-anchor="start" x="40" y="4.680000000000001" style="font-family: 'Open Sans', verdana, arial, sans-serif; font-size: 12px; fill: rgb(68, 68, 68); fill-opacity: 1; white-space: pre;">m=0.4</text><g class="layers" style="opacity: 1;"><g class="legendfill"/><g class="legendlines"><path class="js-line" d="M5,0h30" style="fill: none; stroke: rgb(255, 0, 0); stroke-opacity: 1; stroke-width: 2px;"/></g><g class="legendsymbols"><g class="legendpoints"/></g></g><rect class="legendtoggle" x="0" y="-9.5" width="109" height="19" style="fill: rgb(0, 0, 0); fill-opacity: 0;"/></g><g class="traces" transform="translate(0,33.5)" style="opacity: 1;"><text class="legendtext" text-anchor="start" x="40" y="4.680000000000001" style="font-family: 'Open Sans', verdana, arial, sans-serif; font-size: 12px; fill: rgb(68, 68, 68); fill-opacity: 1; white-space: pre;">m=0.7</text><g class="layers" style="opacity: 1;"><g class="legendfill"/><g class="legendlines"><path class="js-line" d="M5,0h30" style="fill: none; stroke: rgb(0, 0, 255); stroke-opacity: 1; stroke-width: 2px;"/></g><g class="legendsymbols"><g class="legendpoints"/></g></g><rect class="legendtoggle" x="0" y="-9.5" width="109" height="19" style="fill: rgb(0, 0, 0); fill-opacity: 0;"/></g><g class="traces" transform="translate(0,52.5)" style="opacity: 1;"><text class="legendtext" text-anchor="start" x="40" y="4.680000000000001" style="font-family: 'Open Sans', verdana, arial, sans-serif; font-size: 12px; fill: rgb(68, 68, 68); fill-opacity: 1; white-space: pre;">m=0.99</text><g class="layers" style="opacity: 1;"><g class="legendfill"/><g class="legendlines"><path class="js-line" d="M5,0h30" style="fill: none; stroke: rgb(0, 128, 0); stroke-opacity: 1; stroke-width: 2px;"/></g><g class="legendsymbols"><g class="legendpoints"/></g></g><rect class="legendtoggle" x="0" y="-9.5" width="109" height="19" style="fill: rgb(0, 0, 0); fill-opacity: 0;"/></g><g class="traces" transform="translate(0,71.5)" style="opacity: 1;"><text class="legendtext" text-anchor="start" x="40" y="4.680000000000001" style="font-family: 'Open Sans', verdana, arial, sans-serif; font-size: 12px; fill: rgb(68, 68, 68); fill-opacity: 1; white-space: pre;">m=0.999999</text><g class="layers" style="opacity: 1;"><g class="legendfill"/><g class="legendlines"><path class="js-line" d="M5,0h30" style="fill: none; stroke: rgb(128, 0, 128); stroke-opacity: 1; stroke-width: 2px;"/></g><g class="legendsymbols"><g class="legendpoints"/></g></g><rect class="legendtoggle" x="0" y="-9.5" width="109" height="19" style="fill: rgb(0, 0, 0); fill-opacity: 0;"/></g></g></g><rect class="scrollbar" rx="20" ry="3" width="0" height="0" style="fill: rgb(128, 139, 164); fill-opacity: 1;" x="0" y="0"/></g><g class="g-gtitle"><text class="gtitle" x="500" y="50" text-anchor="middle" dy="0em" style="font-family: 'Open Sans', verdana, arial, sans-serif; font-size: 17px; fill: rgb(68, 68, 68); opacity: 1; font-weight: normal; white-space: pre;">Jacobi Zeta Function Z(φ,m)</text></g><g class="g-xtitle"><text class="xtitle" x="500" y="572" text-anchor="middle" style="font-family: 'Open Sans', verdana, arial, sans-serif; font-size: 14px; fill: rgb(68, 68, 68); opacity: 1; font-weight: normal; white-space: pre;">φ</text></g><g class="g-ytitle"><text class="ytitle" transform="rotate(-90,42,310)" x="42" y="310" text-anchor="middle" style="font-family: 'Open Sans', verdana, arial, sans-serif; font-size: 14px; fill: rgb(68, 68, 68); opacity: 1; font-weight: normal; white-space: pre;">Z(φ,m)</text></g><g class="annotation" data-index="0" style="opacity: 1;"><g class="annotation-text-g" transform="rotate(0,862.2,574)"><g class="cursor-pointer" transform="translate(737,565)"><rect class="bg" x="0.5" y="0.5" width="249" height="17" style="stroke-width: 1px; stroke: rgb(0, 0, 0); stroke-opacity: 0; fill: rgb(0, 0, 0); fill-opacity: 0;"/><text class="annotation-text" text-anchor="middle" x="125" y="13" style="font-family: 'Open Sans', verdana, arial, sans-serif; font-size: 12px; fill: rgb(68, 68, 68); fill-opacity: 1; white-space: pre; pointer-events: all;">Generated using <a xlink:show="new" target="_blank" xlink:href="https://docs.rs/ellip/latest/ellip/fn.jacobi_zeta.html" style="cursor:pointer">jacobi_zeta</a> from <a xlink:show="new" target="_blank" xlink:href="https://crates.io/crates/ellip" style="cursor:pointer">ellip</a> v0.5.1</text></g></g></g></g></svg>